<svg xmlns="http://www.w3.org/2000/svg" viewBox="0 0 512 512">
  <defs>
    <linearGradient id="g" x1="0%" y1="0%" x2="100%" y2="100%">
      <stop offset="0%" stop-color="#7B5EA7"/>
      <stop offset="100%" stop-color="#3DA69B"/>
    </linearGradient>
  </defs>
  <rect width="512" height="512" rx="120" fill="url(#g)"/>
  <g fill="#ffffff" transform="translate(96, 96) scale(0.625)">
    <path d="M208 80H96a32 32 0 0 0-32 32v288a32 32 0 0 0 32 32h224a32 32 0 0 0 32-32V176zm0 0"/>
  </g>
  <g fill="none" stroke="#ffffff" stroke-width="34" stroke-linecap="round" stroke-linejoin="round" transform="translate(64, 64) scale(0.75)">
    <polyline points="64 144 112 192 208 96"/>
    <polyline points="64 304 112 352 208 256"/>
    <line x1="272" y1="144" x2="384" y2="144"/>
    <line x1="272" y1="304" x2="384" y2="304"/>
  </g>
</svg>
